<svg xmlns="http://www.w3.org/2000/svg" viewBox="0 0 381.35 99.4"><defs><style>.cls-1{fill:#e30613;}</style></defs><g id="Capa_2" data-name="Capa 2"><g id="Capa_1-2" data-name="Capa 1"><path class="cls-1" d="M5.79,93.83C1.93,90.1,0,84.37,0,76.72V24.08C0,16.43,1.93,10.45,5.81,6.25S15.31,0,22.68,0s13,2,16.86,6,5.8,9.59,5.79,16.86c0,3.94,0,5.9,0,9.84-5.82.19-8.73.29-14.55.5,0-4.37,0-6.56,0-10.94q0-8.78-7.69-8.66t-7.7,9.05l0,53.73c0,5.87,2.55,8.54,7.68,8s7.68-3.6,7.69-9.36,0-8.67,0-14.45c5.82-.38,8.73-.57,14.55-.92,0,5.27,0,7.9,0,13.17,0,7.27-2,13-5.82,17.43s-9.49,7-16.84,7.8S9.65,97.55,5.79,93.83Z"/><path class="cls-1" d="M54.6,1.32,70,1.3l-.12,78c10.13-.69,15.2-1,25.34-1.53,0,5.1,0,7.65,0,12.75q-20.39,1.26-40.73,3.06Q54.53,47.47,54.6,1.32Z"/><path class="cls-1" d="M107,85.29q-6-5.52-6-16.19,0-23.37.08-46.74,0-10.68,6-16.54T124.46,0C132,0,137.8,1.92,141.81,5.72s6,9.18,6,16.14q0,22.85,0,45.69c0,7-2,12.38-6.05,16.32s-9.82,6-17.39,6.38S111,89,107,85.29Zm25.39-16.47q0-23.86,0-47.71,0-8.62-8-8.58t-8,8.74q0,24-.07,48.08c0,5.79,2.65,8.57,8,8.37S132.35,74.56,132.36,68.82Z"/><path class="cls-1" d="M169.67,13.59c-6.44,0-9.66,0-16.1.05V1.24h47.6V13.57h-16.1q0,37,0,74c-6.17,0-9.26,0-15.43.13Z"/><path class="cls-1" d="M208.6,1.23l40.74,0c0,5,0,7.49,0,12.49-10.13-.06-15.2-.08-25.34-.12,0,9.66,0,14.49,0,24.15,7.95.08,11.93.13,19.89.24,0,5,0,7.48,0,12.47-8-.16-11.94-.22-19.9-.32l0,37.77c-6.17-.13-9.26-.18-15.43-.26Z"/><path class="cls-1" d="M256.76,1.25h15.4q.06,37.92.11,75.83c10.14.46,15.21.73,25.35,1.34,0,5.14,0,7.71,0,12.85Q277.27,89.87,256.87,89,256.81,45.12,256.76,1.25Z"/><path class="cls-1" d="M304.92,1.29l15.4,0q.06,45.87.13,91.73c-6.15-.52-9.23-.77-15.39-1.22Q305,46.55,304.92,1.29Z"/><path class="cls-1" d="M345.43,47.28q-8.35-23-17-46l16.24,0Q349.9,16.67,355.06,32h.28Q360.68,16.72,366,1.37l14.55,0q-8.29,23.48-16.91,46.84,9,25.53,17.75,51.16c-6.47-.81-9.7-1.19-16.18-1.93q-5.52-17.18-11.2-34.3l-.28,0Q348,79.11,342.26,95c-5.81-.58-8.72-.85-14.54-1.37Q336.69,70.51,345.43,47.28Z"/></g></g></svg>